<svg width="36" height="35" viewBox="0 0 36 35" fill="none" xmlns="http://www.w3.org/2000/svg">
<rect x="1.41" y="0.52002" width="34" height="33.97" rx="16.985" stroke="#AEAEAE"/>
<g clip-path="url(#clip0_10_105)">
<path d="M26.0355 13.5244C25.852 12.8422 25.3141 12.3044 24.632 12.1207C23.386 11.7798 18.4015 11.7798 18.4015 11.7798C18.4015 11.7798 13.4173 11.7798 12.1712 12.1078C11.5022 12.2913 10.9512 12.8423 10.7677 13.5244C10.4398 14.7704 10.4398 17.3544 10.4398 17.3544C10.4398 17.3544 10.4398 19.9514 10.7677 21.1844C10.9514 21.8665 11.4891 22.4042 12.1713 22.5879C13.4304 22.929 18.4017 22.929 18.4017 22.929C18.4017 22.929 23.386 22.929 24.632 22.601C25.3142 22.4174 25.852 21.8796 26.0357 21.1975C26.3635 19.9514 26.3635 17.3675 26.3635 17.3675C26.3635 17.3675 26.3766 14.7704 26.0355 13.5244ZM16.8146 19.7416V14.9672L20.9594 17.3544L16.8146 19.7416Z" fill="#AEAEAE"/>
</g>
<defs>
<clipPath id="clip0_10_105">
<rect width="17" height="16.97" fill="white" transform="translate(9.91 9.02002)"/>
</clipPath>
</defs>
</svg>
