<svg width="36" height="35" viewBox="0 0 36 35" fill="none" xmlns="http://www.w3.org/2000/svg">
<rect x="1.41" y="0.5" width="34" height="34" rx="17" stroke="#AEAEAE"/>
<g clip-path="url(#clip0_10_113)">
<path d="M24.0767 13.25C24.0767 13.25 22.4525 11.9786 20.535 11.8334L20.3622 12.1794C22.0955 12.604 22.8909 13.2111 23.7225 13.9584C22.2892 13.2267 20.875 12.5417 18.41 12.5417C15.945 12.5417 14.5308 13.2267 13.0975 13.9584C13.9291 13.2111 14.8754 12.536 16.4578 12.1794L16.285 11.8334C14.2733 12.0229 12.7433 13.25 12.7433 13.25C12.7433 13.25 10.9296 15.8801 10.6183 21.0417C12.4458 23.1501 15.2225 23.1667 15.2225 23.1667L15.8033 22.3932C14.8173 22.0504 13.7053 21.4387 12.7433 20.3334C13.8901 21.2011 15.6209 22.1042 18.41 22.1042C21.1991 22.1042 22.9299 21.2011 24.0767 20.3334C23.1151 21.4387 22.003 22.0504 21.0167 22.3932L21.5975 23.1667C21.5975 23.1667 24.3742 23.1501 26.2017 21.0417C25.8904 15.8801 24.0767 13.25 24.0767 13.25ZM16.1079 19.625C15.423 19.625 14.8683 18.9911 14.8683 18.2084C14.8683 17.4257 15.423 16.7917 16.1079 16.7917C16.7929 16.7917 17.3475 17.4257 17.3475 18.2084C17.3475 18.9911 16.7929 19.625 16.1079 19.625ZM20.7121 19.625C20.0271 19.625 19.4725 18.9911 19.4725 18.2084C19.4725 17.4257 20.0271 16.7917 20.7121 16.7917C21.397 16.7917 21.9517 17.4257 21.9517 18.2084C21.9517 18.9911 21.397 19.625 20.7121 19.625Z" fill="#AEAEAE"/>
</g>
<defs>
<clipPath id="clip0_10_113">
<rect width="17" height="17" fill="white" transform="translate(9.91 9)"/>
</clipPath>
</defs>
</svg>
