<svg width="36" height="35" viewBox="0 0 36 35" fill="none" xmlns="http://www.w3.org/2000/svg">
<rect x="1.41" y="0.5" width="34" height="33.98" rx="16.99" stroke="#AEAEAE"/>
<g clip-path="url(#clip0_10_99)">
<path d="M16.2541 24.4559C15.5197 24.4559 14.7637 24.3964 14.0032 24.2772C12.6637 24.0671 11.3078 23.3666 10.9241 23.1569L9.91777 22.6068L11.0073 22.2486C12.1983 21.8571 12.9227 21.6142 13.8196 21.2339C12.9216 20.7991 12.2295 20.0171 11.8963 19.0061L11.6429 18.2368L11.8507 18.2686C11.6536 18.07 11.498 17.8684 11.3774 17.6851C10.9483 17.0336 10.7212 16.2375 10.7695 15.5553L10.8172 14.8839L11.2193 15.0396C11.0497 14.7194 10.9271 14.3774 10.855 14.0189C10.6794 13.1447 10.8264 12.216 11.2689 11.4039L11.6192 10.761L12.0876 11.3235C13.5691 13.1027 15.4456 14.1582 17.6727 14.4671C17.5817 13.8403 17.6498 13.2353 17.8755 12.693C18.1381 12.0616 18.6054 11.5262 19.2263 11.1445C19.916 10.7208 20.7523 10.5154 21.5812 10.5663C22.4607 10.6204 23.2591 10.9498 23.8933 11.5197C24.203 11.4392 24.4312 11.3533 24.7396 11.2373C24.9252 11.1674 25.1356 11.0882 25.3989 10.9975L26.3692 10.6632L25.7365 12.4699C25.7782 12.4664 25.8212 12.4634 25.8662 12.4615L26.9023 12.4146L26.2899 13.2513C26.2548 13.2993 26.2458 13.3129 26.2334 13.3317C26.184 13.406 26.1226 13.4985 25.282 14.6206C25.0716 14.9016 24.9665 15.2676 24.9861 15.6513C25.0606 17.1095 24.8816 18.4288 24.4539 19.5725C24.0493 20.6544 23.4224 21.5828 22.5908 22.3317C21.5616 23.2582 20.2494 23.8926 18.6903 24.217C17.9255 24.3761 17.1042 24.4559 16.2541 24.4559Z" fill="#AEAEAE"/>
</g>
<defs>
<clipPath id="clip0_10_99">
<rect width="17" height="16.98" fill="white" transform="translate(9.91 9)"/>
</clipPath>
</defs>
</svg>
